<?xml version="1.0" encoding="UTF-8"?>
<svg id="logosandtypes_com" data-name="logosandtypes com" xmlns="http://www.w3.org/2000/svg" viewBox="0 0 150 150">
  <defs>
    <style>
      .cls-1 {
        fill: #d6b04b;
      }

      .cls-2 {
        fill: none;
      }
    </style>
  </defs>
  <g id="Layer_3" data-name="Layer 3">
    <g id="Layer_2" data-name="Layer 2">
      <path id="Layer_3-2" data-name="Layer 3-2" class="cls-2" d="M0,0H150V150H0V0Z"/>
    </g>
  </g>
  <path id="Path_661" data-name="Path 661" class="cls-1" d="M6.35,69.01c5.16,3.75,10.86,6.71,16.89,8.79,4.49-2.08,9.19-3.65,14.02-4.7,10.66-2.33,21.73-2.01,32.24,.95-18.77-12.46-42.64-14.37-63.15-5.04"/>
  <path id="Path_662" data-name="Path 662" class="cls-1" d="M27.41,96.37c3.43-3.56,7.25-6.72,11.37-9.44,9.1-6.03,19.54-9.72,30.41-10.77-22-4.84-44.94,2.01-60.69,18.11,6.17,1.63,12.54,2.34,18.92,2.1"/>
  <path id="Path_663" data-name="Path 663" class="cls-1" d="M129.71,117.88c-2.42-5.91-5.7-11.43-9.74-16.37-4.91-.59-9.73-1.73-14.39-3.38-10.29-3.63-19.54-9.73-26.92-17.77,9.4,20.48,28.7,34.65,51.05,37.51"/>
  <path id="Path_664" data-name="Path 664" class="cls-1" d="M38.02,112.17c1.92-4.55,4.33-8.89,7.19-12.91,6.31-8.91,14.71-16.13,24.46-21.02-22.27,3.44-41.19,18.11-50.06,38.83,6.34-.71,12.55-2.35,18.4-4.89"/>
  <path id="Path_665" data-name="Path 665" class="cls-1" d="M28.91,24.57c1.29,6.25,3.5,12.28,6.56,17.88,4.71,1.49,9.25,3.49,13.52,5.97,9.45,5.46,17.41,13.16,23.19,22.42-5.47-21.86-21.82-39.35-43.26-46.27"/>
  <path id="Path_666" data-name="Path 666" class="cls-1" d="M126.18,83.54c-4.79,1.22-9.7,1.91-14.64,2.05-10.91,.34-21.73-2.01-31.52-6.84,16.17,15.69,39.28,21.94,61.16,16.53-4.39-4.63-9.44-8.59-14.99-11.74"/>
  <path id="Path_667" data-name="Path 667" class="cls-1" d="M48.24,101.74c-6.18,9.76-9.64,20.99-10.02,32.54,5.66-2.95,10.85-6.73,15.4-11.21,.14-4.94,.83-9.85,2.04-14.64,2.66-10.59,7.89-20.35,15.22-28.44-9.21,5.29-16.98,12.76-22.63,21.75"/>
  <path id="Path_668" data-name="Path 668" class="cls-1" d="M87.28,25.62c.77,4.88,1.01,9.83,.69,14.76-.67,10.89-4,21.46-9.71,30.76,8.08-6.9,14.34-15.67,18.23-25.55,4.27-10.73,5.6-22.41,3.85-33.83-5.02,3.94-9.42,8.61-13.07,13.85"/>
  <path id="Path_669" data-name="Path 669" class="cls-1" d="M143.7,70.04c-5.77-2.74-11.91-4.6-18.22-5.53-4.03,2.87-8.36,5.28-12.91,7.2-10.05,4.26-20.99,5.98-31.86,5.01,20.74,8.79,44.56,6.27,62.99-6.68"/>
  <path id="Path_670" data-name="Path 670" class="cls-1" d="M13.47,44.68c3.46,5.36,7.7,10.18,12.57,14.3,4.93-.31,9.88-.08,14.77,.68,10.78,1.68,20.99,5.98,29.72,12.53-13-18.4-34.57-28.8-57.06-27.51"/>
  <path id="Path_671" data-name="Path 671" class="cls-1" d="M50.23,30.44c3.86,3.09,7.36,6.6,10.45,10.45,6.84,8.5,11.48,18.56,13.52,29.28,2.79-22.36-6.14-44.57-23.63-58.78-1.06,6.29-1.17,12.71-.34,19.04"/>
  <path id="Path_672" data-name="Path 672" class="cls-1" d="M82.61,112.96c-5.16-9.62-7.88-20.35-7.92-31.27-6.85,21.47-2.14,44.95,12.45,62.11,2.19-5.99,3.48-12.28,3.82-18.65-3.23-3.74-6.03-7.83-8.37-12.19"/>
  <path id="Path_673" data-name="Path 673" class="cls-1" d="M110.85,134.82c-.12-6.38-1.19-12.71-3.17-18.78-4.36-2.33-8.45-5.13-12.2-8.35-8.29-7.1-14.71-16.13-18.69-26.3,1.37,22.49,14.24,42.68,34.05,53.42"/>
  <path id="Path_674" data-name="Path 674" class="cls-1" d="M72.09,127.6c-1.65-4.66-2.79-9.48-3.39-14.39-1.34-10.83,0-21.82,3.91-32.01-14.14,17.54-18.23,41.14-10.83,62.42,4.21-4.79,7.69-10.19,10.31-16.01"/>
  <path id="Path_675" data-name="Path 675" class="cls-1" d="M117.95,47.04c-2.72,4.13-5.88,7.94-9.44,11.38-7.83,7.6-17.41,13.16-27.9,16.19,22.52,.7,43.81-10.26,56.32-28.99-6.36-.47-12.76,.01-18.99,1.43"/>
  <path id="Path_676" data-name="Path 676" class="cls-1" d="M99.93,47.48c-4.56,9.92-11.48,18.56-20.17,25.17,10.02-3.51,19.03-9.43,26.24-17.23,7.86-8.46,13.32-18.87,15.81-30.15-6.1,1.86-11.9,4.62-17.19,8.19-1.04,4.83-2.62,9.53-4.69,14.02"/>
  <path id="Path_677" data-name="Path 677" class="cls-1" d="M76.32,70.28c10.68-19.84,10.38-43.78-.79-63.34-3.26,5.49-5.69,11.43-7.2,17.63,2.48,4.28,4.48,8.81,5.97,13.52,3.3,10.4,4,21.46,2.02,32.19"/>
</svg>